<svg id="ic-troli" xmlns="http://www.w3.org/2000/svg" width="20.802" height="18.283" viewBox="0 0 20.802 18.283">
  <path id="Path_80" data-name="Path 80" d="M6.7,12.189H17.755a.61.61,0,0,0,.586-.442l2.438-8.532a.609.609,0,0,0-.586-.777H5.3L4.861.477A.61.61,0,0,0,4.266,0H.609a.609.609,0,0,0,0,1.219H3.777l2.2,9.9A1.828,1.828,0,0,0,6.7,14.627H17.755a.609.609,0,0,0,0-1.219H6.7a.609.609,0,0,1,0-1.219ZM19.385,3.657,17.3,10.97H7.193L5.567,3.657Zm0,0" fill="#fff"/>
  <path id="Path_81" data-name="Path 81" d="M150,361.828A1.828,1.828,0,1,0,151.828,360,1.83,1.83,0,0,0,150,361.828Zm1.828-.609a.609.609,0,1,1-.609.609A.61.61,0,0,1,151.828,361.219Zm0,0" transform="translate(-143.906 -345.373)" fill="#fff"/>
  <path id="Path_82" data-name="Path 82" d="M362,361.828A1.828,1.828,0,1,0,363.828,360,1.83,1.83,0,0,0,362,361.828Zm1.828-.609a.609.609,0,1,1-.609.609A.61.61,0,0,1,363.828,361.219Zm0,0" transform="translate(-347.292 -345.373)" fill="#fff"/>
</svg>
