<svg xmlns="http://www.w3.org/2000/svg" width="22.227" height="33.34" viewBox="0 0 22.227 33.34">
  <g id="Group_3612" data-name="Group 3612" transform="translate(-24 -11)">
    <path id="Path_10684" data-name="Path 10684" d="M35.113,11C29.014,11,24,15.756,24,22.541a11.137,11.137,0,0,0,1.63,5.971L34.365,43.9a.855.855,0,0,0,1.5,0L44.6,28.512a11.141,11.141,0,0,0,1.629-5.971C46.227,15.756,41.213,11,35.113,11Zm0,5.984a5.129,5.129,0,1,1-5.129,5.129A5.129,5.129,0,0,1,35.113,16.984Z" transform="translate(0 0)" fill="#a7d0e6"/>
  </g>
</svg>
