<svg id="instagram-logo" xmlns="http://www.w3.org/2000/svg" width="24.596" height="24.596" viewBox="0 0 24.596 24.596">
  <path id="Path_64" data-name="Path 64" d="M17.808,0H6.787A6.8,6.8,0,0,0,0,6.788V17.808A6.8,6.8,0,0,0,6.787,24.6H17.808A6.8,6.8,0,0,0,24.6,17.808V6.788A6.8,6.8,0,0,0,17.808,0Zm4.606,17.808a4.611,4.611,0,0,1-4.605,4.605H6.787a4.61,4.61,0,0,1-4.605-4.605V6.788A4.61,4.61,0,0,1,6.787,2.182H17.808a4.611,4.611,0,0,1,4.605,4.605V17.808Z" fill="#fcb88f"/>
  <path id="Path_65" data-name="Path 65" d="M47.306,40.97a6.338,6.338,0,1,0,6.338,6.338A6.345,6.345,0,0,0,47.306,40.97Zm0,10.493a4.155,4.155,0,1,1,4.155-4.155A4.16,4.16,0,0,1,47.306,51.463Z" transform="translate(-35.008 -35.01)" fill="#fcb88f"/>
  <path id="Path_66" data-name="Path 66" d="M120.521,28.251a1.6,1.6,0,1,0,1.132.468A1.607,1.607,0,0,0,120.521,28.251Z" transform="translate(-101.62 -24.141)" fill="#fcb88f"/>
</svg>
