<svg xmlns="http://www.w3.org/2000/svg" width="57" height="57" viewBox="0 0 57 57">
  <g id="troli-icon-circle" transform="translate(-522 -2384)">
    <circle id="Ellipse_7" data-name="Ellipse 7" cx="28.5" cy="28.5" r="28.5" transform="translate(522 2384)" fill="#ffbe9e"/>
    <g id="supermarket" transform="translate(537.092 2402.763)">
      <path id="Path_80" data-name="Path 80" d="M7.811,14.206H20.693a.71.71,0,0,0,.683-.515l2.841-9.944a.71.71,0,0,0-.683-.905H6.173L5.665.556A.71.71,0,0,0,4.972,0H.71a.71.71,0,0,0,0,1.421H4.4l2.564,11.54a2.131,2.131,0,0,0,.846,4.086h12.88a.71.71,0,0,0,0-1.421H7.813a.71.71,0,0,1,0-1.42ZM22.592,4.262l-2.435,8.523H8.383L6.489,4.262Zm0,0" fill="#fff"/>
      <path id="Path_81" data-name="Path 81" d="M150,362.131A2.131,2.131,0,1,0,152.131,360,2.133,2.133,0,0,0,150,362.131Zm2.131-.71a.71.71,0,1,1-.71.71A.711.711,0,0,1,152.131,361.421Zm0,0" transform="translate(-142.897 -342.953)" fill="#fff"/>
      <path id="Path_82" data-name="Path 82" d="M362,362.131A2.131,2.131,0,1,0,364.131,360,2.133,2.133,0,0,0,362,362.131Zm2.131-.71a.71.71,0,1,1-.71.71A.711.711,0,0,1,364.131,361.421Zm0,0" transform="translate(-344.859 -342.953)" fill="#fff"/>
    </g>
  </g>
</svg>
