<svg id="twitter-logo-silhouette" xmlns="http://www.w3.org/2000/svg" width="26.086" height="21.189" viewBox="0 0 26.086 21.189">
  <g id="Group_74" data-name="Group 74" transform="translate(0 0)">
    <path id="Path_67" data-name="Path 67" d="M26.087,59.948a10.686,10.686,0,0,1-3.073.843,5.373,5.373,0,0,0,2.352-2.959,10.788,10.788,0,0,1-3.4,1.3,5.355,5.355,0,0,0-9.119,4.879A15.193,15.193,0,0,1,1.818,58.419a5.357,5.357,0,0,0,1.656,7.143,5.352,5.352,0,0,1-2.424-.672v.067A5.357,5.357,0,0,0,5.343,70.2a5.421,5.421,0,0,1-1.41.187,5.135,5.135,0,0,1-1.007-.1,5.354,5.354,0,0,0,5,3.717A10.737,10.737,0,0,1,1.277,76.3,11.372,11.372,0,0,1,0,76.223,15.126,15.126,0,0,0,8.2,78.63,15.12,15.12,0,0,0,23.428,63.405l-.018-.693A10.686,10.686,0,0,0,26.087,59.948Z" transform="translate(-0.001 -57.441)" fill="#fcb88f"/>
  </g>
</svg>
