<svg xmlns="http://www.w3.org/2000/svg" width="150" height="163" viewBox="0 0 150 163">
  <g id="dots-vector-home" transform="translate(-502 -4750)">
    <circle id="Ellipse_15" data-name="Ellipse 15" cx="7" cy="7" r="7" transform="translate(638 4849)" fill="#ffdcc6"/>
    <circle id="Ellipse_16" data-name="Ellipse 16" cx="7" cy="7" r="7" transform="translate(604 4808)" fill="#ffdcc6"/>
    <circle id="Ellipse_17" data-name="Ellipse 17" cx="7" cy="7" r="7" transform="translate(563 4783)" fill="#ffdcc6"/>
    <circle id="Ellipse_18" data-name="Ellipse 18" cx="7" cy="7" r="7" transform="translate(527 4787)" fill="#ffdcc6"/>
    <circle id="Ellipse_19" data-name="Ellipse 19" cx="7" cy="7" r="7" transform="translate(558 4856)" fill="#ffdcc6"/>
    <circle id="Ellipse_20" data-name="Ellipse 20" cx="7" cy="7" r="7" transform="translate(502 4833)" fill="#ffdcc6"/>
    <circle id="Ellipse_21" data-name="Ellipse 21" cx="7" cy="7" r="7" transform="translate(556 4818)" fill="#ffdcc6"/>
    <circle id="Ellipse_22" data-name="Ellipse 22" cx="7" cy="7" r="7" transform="translate(587 4825)" fill="#ffdcc6"/>
    <circle id="Ellipse_23" data-name="Ellipse 23" cx="7" cy="7" r="7" transform="translate(580 4899)" fill="#ffdcc6"/>
    <circle id="Ellipse_24" data-name="Ellipse 24" cx="7" cy="7" r="7" transform="translate(594 4863)" fill="#ffdcc6"/>
    <circle id="Ellipse_25" data-name="Ellipse 25" cx="7" cy="7" r="7" transform="translate(577 4750)" fill="#ffdcc6"/>
    <circle id="Ellipse_26" data-name="Ellipse 26" cx="7" cy="7" r="7" transform="translate(527 4875)" fill="#ffdcc6"/>
  </g>
</svg>
