<svg id="calendar_3_" data-name="calendar (3)" xmlns="http://www.w3.org/2000/svg" width="23.473" height="23.473" viewBox="0 0 23.473 23.473">
  <g id="Group_89" data-name="Group 89">
    <g id="Group_88" data-name="Group 88">
      <path id="Path_88" data-name="Path 88" d="M21.41,2.751h-.688V2.063a2.063,2.063,0,1,0-4.126,0v.688H13.845V2.063a2.063,2.063,0,0,0-4.126,0v.688H6.877V2.063a2.063,2.063,0,0,0-4.126,0v.688H2.063A2.065,2.065,0,0,0,0,4.814v16.6a2.065,2.065,0,0,0,2.063,2.063H21.41a2.065,2.065,0,0,0,2.063-2.063V4.814A2.065,2.065,0,0,0,21.41,2.751Zm-3.438-.688a.688.688,0,1,1,1.375,0V4.814a.688.688,0,1,1-1.375,0Zm-6.877,0a.688.688,0,0,1,1.375,0V4.814a.688.688,0,0,1-1.375,0Zm-6.968,0a.688.688,0,1,1,1.375,0V4.814a.688.688,0,1,1-1.375,0ZM22.1,21.41a.688.688,0,0,1-.688.688H2.063a.688.688,0,0,1-.688-.688V9.719H22.1Zm0-13.066H1.375V4.814a.688.688,0,0,1,.688-.688h.688v.688a2.063,2.063,0,0,0,4.126,0V4.126H9.719v.688a2.063,2.063,0,1,0,4.126,0V4.126H16.6v.688a2.063,2.063,0,1,0,4.126,0V4.126h.688a.688.688,0,0,1,.688.688Z" fill="#ffbe9e"/>
    </g>
  </g>
  <g id="Group_91" data-name="Group 91" transform="translate(2.751 11.094)">
    <g id="Group_90" data-name="Group 90">
      <path id="Path_89" data-name="Path 89" d="M77.284,242h-16.6a.688.688,0,0,0-.688.688v8.252a.688.688,0,0,0,.688.688h16.6a.688.688,0,0,0,.688-.688v-8.252A.688.688,0,0,0,77.284,242Zm-13.158,8.252H61.375V247.5h2.751Zm0-4.126H61.375v-2.751h2.751Zm4.218,4.126H65.5V247.5h2.842Zm0-4.126H65.5v-2.751h2.842Zm4.126,4.126H69.719V247.5H72.47Zm0-4.126H69.719v-2.751H72.47Zm4.126,4.126H73.845V247.5H76.6Zm0-4.126H73.845v-2.751H76.6Z" transform="translate(-60 -242)" fill="#ffbe9e"/>
    </g>
  </g>
</svg>
